<?xml version="1.0" encoding="utf-8"?>
<!-- Generator: Adobe Illustrator 28.1.0, SVG Export Plug-In . SVG Version: 6.00 Build 0)  -->
<svg version="1.1" xmlns="http://www.w3.org/2000/svg" xmlns:xlink="http://www.w3.org/1999/xlink" x="0px" y="0px"
	 viewBox="0 0 1076.31 352.03" style="enable-background:new 0 0 1076.31 352.03;" xml:space="preserve">
<style type="text/css">
	.st0{fill:#302A25;}
	.st1{fill:#FFD319;}
	.st2{fill:#47413B;}
	.st3{fill:#7B736B;}
	.st4{fill:none;}
</style>
<g id="Capa_2">
</g>
<g id="Capa_1">
	<g>
		<polygon class="st4" points="223.49,215.59 159.92,215.59 191.7,117.75 		"/>
		<polygon class="st2" points="1076.31,0.4 995.85,352.03 858.78,352.03 818.05,152.38 777.33,352.03 640.25,352.03 640.16,351.63 
			678.32,351.63 678.32,0.4 678.5,0.4 710.28,221.91 757.96,0.4 878.15,0.4 925.83,221.91 957.61,0.4 		"/>
		<polygon class="st3" points="678.32,0 678.32,351.63 568.56,351.63 568.56,176.31 514.42,351.63 420.06,351.63 365.93,176.31 
			365.93,302.33 255.77,0.05 255.67,0.05 255.67,0 390.76,0 468.24,211.08 543.73,0 		"/>
		<path class="st1" d="M365.93,302.33L255.77,0.05H128.63L0,351.68h115.72l17.38-53.15h117.21l5.36,16.4l12.01,36.7l0.01,0.05
			h116.22L365.93,302.33z M159.92,215.59l31.78-97.84l31.79,97.84H159.92z"/>
	</g>
</g>
</svg>
